<?xml version="1.0" encoding="UTF-8"?>
<svg id="Ebene_1" data-name="Ebene 1" xmlns="http://www.w3.org/2000/svg" viewBox="0 0 383.5 272.25">
  <defs>
    <style>
      .cls-1 {
        letter-spacing: .01em;
      }

      .cls-1, .cls-2, .cls-3, .cls-4, .cls-5, .cls-6, .cls-7 {
        fill: #d5d4c7;
      }

      .cls-2 {
        letter-spacing: 0em;
      }

      .cls-3 {
        letter-spacing: 0em;
      }

      .cls-8, .cls-9, .cls-10, .cls-11 {
        fill: #c70c0f;
      }

      .cls-8, .cls-7 {
        letter-spacing: .01em;
      }

      .cls-12 {
        font-family: CoText-Regular, 'Co Text';
        font-size: 25px;
      }

      .cls-5 {
        letter-spacing: .01em;
      }

      .cls-10 {
        letter-spacing: 0em;
      }

      .cls-6 {
        letter-spacing: 0em;
      }

      .cls-11 {
        letter-spacing: 0em;
      }
    </style>
  </defs>
  <path class="cls-9" d="M50.16,12.34c-13.94,13.26-5.38,52.63-5.29,54.68-7.1-3.17-14.77-35.69-14.77-35.69-21.54,19.66,.05,51.96,.59,53.23-12.46-5.18-16.03-15.86-21.26-26.77,.07,.06-.05,.06,0,0-16.21,26.53,13.44,48.99,13.01,49.63S4.05,96.18,0,91.17c.44,19.87,23.38,44.04,41.86,46.7l-15.84,.62c15.32,15.55,37.23,17.27,58.07,31.09,20.84,13.81-30.09,16.44-30.09,16.44,4.73,9.08,15.86,8.26,15.86,8.26,0,0-3.44,3.43-12.22,4.12,22.71,17.53,72.24-17.57,74.84-33.65,2.6-16.08-24.94-25.27-30.01-41.93-.94-.21-1.87-.42-2.81-.63-7.86-11.56-15.34-23.35-19.81-36.7-.95-.19-1.9-.38-2.85-.55-8.68-23.96-16-58.77-11.98-84.94-2.55,1.71-7.2,5.05-14.86,12.34Z"/>
  <g>
    <path class="cls-4" d="M168.45,231.73c-.34,.25-.82,.54-1.44,.89-.63,.35-1.41,.69-2.36,1.03-.95,.34-2.06,.62-3.34,.87-1.28,.24-2.73,.37-4.35,.37-2.29,0-4.45-.34-6.5-1.03-2.04-.69-3.84-1.72-5.38-3.09-1.54-1.37-2.76-3.08-3.66-5.12-.9-2.04-1.35-4.42-1.35-7.14s.43-5.01,1.3-7.07c.87-2.06,2.06-3.8,3.57-5.22,1.51-1.42,3.28-2.5,5.31-3.25,2.03-.75,4.22-1.12,6.57-1.12,1.25,0,2.38,.08,3.38,.23,1.01,.15,1.9,.35,2.68,.59,.78,.25,1.44,.5,1.99,.78s.99,.52,1.33,.73c.7,.52,1.2,1.06,1.51,1.62,.3,.56,.46,1.15,.46,1.76s-.11,1.13-.34,1.65-.5,.98-.82,1.4c-.32,.41-.64,.76-.96,1.05-.32,.29-.59,.5-.8,.62-.31-.3-.69-.66-1.17-1.08s-1.04-.79-1.72-1.12c-.67-.33-1.44-.62-2.31-.87s-1.84-.37-2.9-.37c-1.34,0-2.56,.22-3.66,.66-1.1,.44-2.05,1.08-2.86,1.92-.81,.84-1.43,1.85-1.88,3.04-.44,1.19-.66,2.53-.66,4.03s.24,2.87,.73,4.03c.49,1.16,1.16,2.13,2.01,2.91,.85,.78,1.87,1.37,3.04,1.76,1.17,.4,2.45,.59,3.82,.59,1.71,0,3.18-.21,4.42-.64,1.24-.43,2.17-.87,2.81-1.33l3.43,5.9h.09Z"/>
    <path class="cls-4" d="M170.32,218.37c0-2.32,.43-4.48,1.3-6.5,.87-2.01,2.07-3.76,3.59-5.24,1.52-1.48,3.32-2.65,5.4-3.5,2.07-.85,4.3-1.28,6.68-1.28s4.6,.43,6.68,1.28c2.07,.85,3.87,2.02,5.4,3.5s2.72,3.23,3.59,5.24c.87,2.01,1.3,4.18,1.3,6.5s-.43,4.48-1.3,6.5c-.87,2.01-2.07,3.76-3.59,5.24-1.53,1.48-3.33,2.65-5.4,3.5-2.08,.85-4.3,1.28-6.68,1.28s-4.61-.43-6.68-1.28-3.87-2.02-5.4-3.5c-1.53-1.48-2.72-3.23-3.59-5.24-.87-2.01-1.3-4.18-1.3-6.5Zm16.97,9.38c1.31,0,2.52-.24,3.61-.71,1.1-.47,2.04-1.14,2.84-1.99,.79-.85,1.41-1.84,1.85-2.97,.44-1.13,.66-2.36,.66-3.71s-.22-2.58-.66-3.73c-.44-1.14-1.06-2.13-1.85-2.97-.79-.84-1.74-1.49-2.84-1.97-1.1-.47-2.3-.71-3.61-.71s-2.52,.24-3.62,.71c-1.1,.47-2.04,1.13-2.84,1.97-.79,.84-1.41,1.83-1.85,2.97-.44,1.14-.66,2.39-.66,3.73s.22,2.58,.66,3.71c.44,1.13,1.06,2.12,1.85,2.97,.79,.85,1.74,1.52,2.84,1.99,1.1,.47,2.3,.71,3.62,.71Z"/>
    <path class="cls-4" d="M205.19,234.06c.64-1.71,1.42-3.7,2.33-5.97s1.9-4.68,2.95-7.23c1.05-2.55,2.15-5.15,3.29-7.8,1.14-2.65,2.26-5.22,3.36-7.69,.58-1.31,1.29-2.23,2.13-2.75,.84-.52,1.94-.78,3.32-.78,.52,0,1.03,.06,1.53,.18,.5,.12,.95,.27,1.35,.43,.4,.17,.72,.33,.96,.48,.24,.15,.4,.25,.46,.27,.46,.76,1.06,1.97,1.81,3.62,.75,1.65,1.56,3.5,2.45,5.56,.88,2.06,1.8,4.22,2.75,6.47,.94,2.26,1.82,4.4,2.63,6.43,.81,2.03,1.52,3.83,2.13,5.4,.61,1.57,1.04,2.69,1.28,3.36h-8.42c-.34-.88-.7-1.87-1.1-2.95-.4-1.08-.88-2.36-1.46-3.82h-13.31c-.49,1.28-.92,2.46-1.3,3.52-.38,1.07-.79,2.15-1.21,3.25h-7.92Zm21.14-13.68c-.3-.82-.66-1.75-1.05-2.77-.4-1.02-.78-2.01-1.14-2.97-.37-.96-.71-1.85-1.03-2.65-.32-.81-.57-1.41-.75-1.81-.18,.43-.43,1.03-.73,1.81-.31,.78-.64,1.65-1.01,2.61s-.75,1.94-1.14,2.95c-.4,1.01-.76,1.95-1.1,2.84h7.96Z"/>
    <path class="cls-4" d="M269.19,231.73c-.34,.25-.82,.54-1.44,.89-.63,.35-1.41,.69-2.36,1.03-.95,.34-2.06,.62-3.34,.87-1.28,.24-2.73,.37-4.35,.37-2.29,0-4.45-.34-6.5-1.03-2.04-.69-3.84-1.72-5.38-3.09-1.54-1.37-2.76-3.08-3.66-5.12-.9-2.04-1.35-4.42-1.35-7.14s.43-5.01,1.3-7.07,2.06-3.8,3.57-5.22c1.51-1.42,3.28-2.5,5.31-3.25,2.03-.75,4.22-1.12,6.57-1.12,1.25,0,2.38,.08,3.39,.23,1.01,.15,1.9,.35,2.68,.59,.78,.25,1.44,.5,1.99,.78s.99,.52,1.33,.73c.7,.52,1.2,1.06,1.51,1.62,.3,.56,.46,1.15,.46,1.76s-.11,1.13-.34,1.65-.5,.98-.82,1.4c-.32,.41-.64,.76-.96,1.05-.32,.29-.59,.5-.8,.62-.31-.3-.69-.66-1.17-1.08s-1.04-.79-1.72-1.12c-.67-.33-1.44-.62-2.31-.87s-1.84-.37-2.91-.37c-1.34,0-2.56,.22-3.66,.66-1.1,.44-2.05,1.08-2.86,1.92-.81,.84-1.43,1.85-1.88,3.04s-.66,2.53-.66,4.03,.24,2.87,.73,4.03c.49,1.16,1.16,2.13,2.01,2.91,.85,.78,1.87,1.37,3.04,1.76,1.17,.4,2.45,.59,3.82,.59,1.71,0,3.18-.21,4.42-.64,1.24-.43,2.17-.87,2.81-1.33l3.43,5.9h.09Z"/>
    <path class="cls-4" d="M272.9,234.06v-28c0-1.25,.37-2.13,1.1-2.63,.73-.5,1.69-.75,2.88-.75,.88,0,1.67,.11,2.36,.32,.69,.21,1.12,.35,1.3,.41v10.75h12.17v-8.1c0-1.25,.37-2.13,1.1-2.63,.73-.5,1.69-.75,2.88-.75,.88,0,1.67,.11,2.36,.32,.69,.21,1.12,.35,1.3,.41v30.65h-7.64v-12.67h-12.17v12.67h-7.64Z"/>
    <path class="cls-4" d="M306.76,234.06v-28c0-1.25,.37-2.13,1.1-2.63,.73-.5,1.69-.75,2.88-.75,.88,0,1.67,.11,2.36,.32,.69,.21,1.12,.35,1.3,.41v30.65h-7.64Z"/>
    <path class="cls-4" d="M320.8,206.65c0-.79,.12-1.45,.37-1.97s.56-.92,.96-1.21c.4-.29,.85-.5,1.35-.62,.5-.12,1.01-.18,1.53-.18,1.07,0,1.92,.15,2.56,.43,.64,.29,1.05,.51,1.24,.66,.15,.15,.5,.59,1.03,1.33,.53,.73,1.17,1.63,1.92,2.7s1.56,2.25,2.42,3.54c.87,1.3,1.72,2.56,2.54,3.8,.82,1.24,1.58,2.38,2.29,3.43,.7,1.05,1.25,1.9,1.65,2.54v-15.05c0-1.25,.37-2.13,1.1-2.63,.73-.5,1.69-.75,2.88-.75,.88,0,1.66,.11,2.33,.32,.67,.21,1.08,.35,1.24,.41v30.65h-7.18c-.27-.46-.7-1.14-1.28-2.06-.58-.92-1.25-1.95-2.01-3.11s-1.58-2.4-2.45-3.73c-.87-1.33-1.72-2.63-2.56-3.91-.84-1.28-1.64-2.49-2.4-3.62-.76-1.13-1.42-2.09-1.97-2.88v19.31h-7.55v-27.41Z"/>
    <path class="cls-4" d="M374.33,222.53h-2.79c-1.4,0-2.4-.28-3-.85-.6-.56-.89-1.41-.89-2.54,0-.82,.12-1.56,.37-2.22,.24-.66,.44-1.11,.59-1.35h8.69c3.02,0,4.53,1.45,4.53,4.35v14.14c-.15,.03-.53,.09-1.12,.18s-1.35,.18-2.26,.27c-.92,.09-1.94,.18-3.09,.25-1.14,.08-2.34,.11-3.59,.11-2.75,0-5.25-.34-7.53-1.03-2.27-.69-4.23-1.72-5.86-3.09-1.63-1.37-2.9-3.09-3.8-5.15-.9-2.06-1.35-4.46-1.35-7.21,0-2.56,.43-4.87,1.3-6.91,.87-2.04,2.08-3.78,3.64-5.22,1.56-1.43,3.4-2.53,5.54-3.29,2.13-.76,4.45-1.14,6.95-1.14,1.28,0,2.42,.08,3.41,.23,.99,.15,1.86,.34,2.61,.55,.75,.21,1.38,.45,1.9,.71s.95,.5,1.28,.71c1.28,.79,1.92,1.81,1.92,3.07,0,.58-.11,1.12-.34,1.62-.23,.5-.5,.95-.8,1.33-.31,.38-.63,.72-.96,1.01-.34,.29-.61,.51-.82,.66-.3-.3-.69-.63-1.17-.98-.47-.35-1.04-.68-1.69-.98-.66-.3-1.42-.55-2.29-.73-.87-.18-1.84-.27-2.91-.27-1.5,0-2.84,.23-4.03,.69-1.19,.46-2.2,1.11-3.02,1.94-.82,.84-1.46,1.85-1.9,3.04s-.66,2.52-.66,3.98c0,3.26,.92,5.66,2.77,7.18,1.85,1.53,4.37,2.29,7.57,2.29,.55,0,1.12-.01,1.72-.05,.59-.03,.95-.06,1.08-.09v-5.22Z"/>
  </g>
  <g>
    <path class="cls-9" d="M8.64,207.57c0-.67,.09-1.25,.27-1.74s.42-.89,.71-1.21c.29-.32,.62-.56,1.01-.73,.38-.17,.77-.28,1.17-.34,.3-.06,.66-.12,1.08-.18,.41-.06,.93-.11,1.56-.16,.62-.05,1.39-.08,2.29-.11,.9-.03,1.99-.05,3.27-.05,2.75,0,5.03,.31,6.86,.94,1.83,.63,3.3,1.45,4.42,2.47,1.11,1.02,1.91,2.2,2.38,3.52,.47,1.33,.71,2.69,.71,4.09,0,1.62-.26,3.1-.78,4.44-.52,1.34-1.33,2.49-2.42,3.45-1.1,.96-2.51,1.71-4.23,2.24-1.72,.53-3.77,.8-6.15,.8-.55,0-1.08-.01-1.6-.05-.52-.03-.99-.06-1.42-.09-.43-.03-.79-.07-1.08-.11-.29-.04-.48-.07-.57-.07v10.2h-7.46v-27.31Zm7.46,10.66c.21,.03,.59,.08,1.12,.16,.53,.08,1.41,.11,2.63,.11,1.4,0,2.54-.13,3.41-.39,.87-.26,1.55-.6,2.04-1.03,.49-.43,.82-.91,.98-1.44,.17-.53,.25-1.06,.25-1.58,0-.49-.07-.99-.21-1.51-.14-.52-.44-1-.89-1.44s-1.12-.81-1.99-1.1c-.87-.29-2.04-.43-3.5-.43-1.07,0-1.94,.02-2.61,.07s-1.08,.08-1.24,.11v8.46Z"/>
    <path class="cls-9" d="M39.71,226.65c.24,.18,.61,.41,1.1,.69,.49,.28,1.08,.53,1.76,.78,.69,.24,1.46,.45,2.33,.62,.87,.17,1.82,.25,2.86,.25,1.89,0,3.23-.34,4.03-1.03,.79-.69,1.19-1.49,1.19-2.4,0-1.04-.4-1.84-1.21-2.42-.81-.58-2.11-.87-3.91-.87h-3.16c-.12-.21-.31-.66-.55-1.33-.24-.67-.37-1.4-.37-2.2,0-1.1,.31-1.91,.94-2.45,.62-.53,1.62-.8,3-.8h.46c1.65,0,2.79-.3,3.43-.89,.64-.6,.96-1.32,.96-2.17,0-.4-.08-.79-.25-1.19-.17-.4-.43-.75-.8-1.08-.37-.32-.86-.57-1.49-.75-.63-.18-1.4-.27-2.31-.27-1.04,0-1.94,.14-2.72,.41-.78,.27-1.43,.6-1.97,.98-.53,.38-.95,.78-1.26,1.19-.31,.41-.5,.75-.59,1.03-.52-.09-1.01-.26-1.46-.5s-.85-.55-1.19-.92c-.34-.37-.61-.77-.82-1.21-.21-.44-.32-.91-.32-1.4s.08-.97,.25-1.44c.17-.47,.46-.95,.89-1.44,.21-.24,.56-.54,1.03-.89,.47-.35,1.1-.69,1.88-1.03,.78-.33,1.72-.62,2.84-.87,1.11-.24,2.43-.37,3.96-.37,2.01,0,3.77,.24,5.26,.73,1.49,.49,2.74,1.13,3.73,1.94,.99,.81,1.73,1.75,2.22,2.83,.49,1.08,.73,2.22,.73,3.4,0,1.71-.44,3.15-1.33,4.34-.89,1.19-1.92,2.1-3.11,2.74,1.74,.7,3,1.7,3.77,3,.78,1.3,1.17,2.71,1.17,4.24s-.29,2.79-.87,3.99c-.58,1.19-1.4,2.21-2.45,3.07-1.05,.86-2.32,1.52-3.8,1.99s-3.1,.71-4.87,.71-3.41-.14-4.83-.43c-1.42-.29-2.64-.62-3.66-.98-1.02-.37-1.85-.74-2.49-1.12-.64-.38-1.08-.66-1.33-.85l3.34-5.63Z"/>
  </g>
  <path class="cls-4" d="M267.05,130.8s-17.59,18.46-64.51,28.93c-5.27,1.18-11.9,.03-17.18,1.65-1.31-1.18-1.94-1.89-1.94-1.89-3.83,1.37-31.9,.38-31.9,.38,0,0,1.62,6.1,10.75,9.01,1.5,6.2,8.9,9.23,1.76,17.45,.44-2.67-1.32-4.46-1.32-4.46-12.19-6.8-13.75-1.65-22.55-1.91-1.36,5.6-2.23,7.33-5.54,11.44-.83-.25-1.42-.42-2.25-.65-.6,.6-8.25,6.86-8.25,6.86l-3.27-.69s-5.33,2.33-8.76,3.42l-3.15-.67c-9.9,4.49-23.35,11.83-39.68,10.21,7.48,10.53,18.62,13.19,26.64,8.64-2.43,3.04-3.82,3.93-8.95,5.43,5.25,4.4,20.87,2.56,26.6-2.52,0,0-4.27,6.31-7.36,8.36,2.5,1.48,8.83,2.61,13.16-2.55,19.54,1.43,5.3-28.96,24.36-32.39,13.18-2.37,48.05-5.65,54.58-8.47l-8.36-1.69c11.07-.44,33.95-4.97,44.72-9.82-6.23-1.08-10.74-5-10.74-5,0,0,16.92,3.98,24.4-4.97l-18.29-.38s22.59-1.5,28.94-12.3l-23.19,5.22c20.22-5.81,32.33-22.41,31.28-26.65Z"/>
  <text class="cls-12" transform="translate(6.53 261.37)"><tspan class="cls-11" x="0" y="0">P</tspan><tspan class="cls-7" x="15.62" y="0">e</tspan><tspan class="cls-2" x="30.77" y="0">r</tspan><tspan class="cls-6" x="41.48" y="0">c</tspan><tspan class="cls-7" x="54.73" y="0">eption.</tspan><tspan class="cls-8" x="144.3" y="0"> </tspan><tspan class="cls-10" x="150.67" y="0">P</tspan><tspan class="cls-1" x="166.35" y="0">a</tspan><tspan class="cls-3" x="181.57" y="0">s</tspan><tspan class="cls-7" x="195.92" y="0">sion.</tspan><tspan class="cls-8" x="257.92" y="0" xml:space="preserve"> P</tspan><tspan class="cls-5" x="280.42" y="0">urpo</tspan><tspan class="cls-3" x="340.12" y="0">s</tspan><tspan class="cls-1" x="354.47" y="0">e.</tspan></text>
</svg>